<?xml version="1.0" standalone="no"?>
<!DOCTYPE svg PUBLIC "-//W3C//DTD SVG 20010904//EN"
 "http://www.w3.org/TR/2001/REC-SVG-20010904/DTD/svg10.dtd">
<svg version="1.0" xmlns="http://www.w3.org/2000/svg"
 width="1914.000000pt" height="795.000000pt" viewBox="0 0 1914.000000 795.000000"
 preserveAspectRatio="xMidYMid meet">
<metadata>
Created by potrace 1.16, written by Peter Selinger 2001-2019
</metadata>
<g transform="translate(0.000000,795.000000) scale(0.100000,-0.100000)"
fill="#ffffff" stroke="none">
<path d="M2100 7943 c-535 -57 -1033 -296 -1415 -678 -344 -344 -570 -777
-655 -1255 -32 -177 -39 -523 -16 -709 25 -193 90 -441 159 -603 14 -33 14
-38 1 -38 -18 0 -18 -7 1 -60 8 -23 20 -72 26 -109 13 -87 43 -158 111 -267
30 -49 77 -127 104 -173 167 -284 468 -517 863 -667 63 -24 115 -45 116 -46 2
-2 8 -52 14 -113 15 -142 45 -314 78 -440 35 -137 29 -185 -42 -335 -56 -119
-82 -201 -112 -355 -14 -75 -17 -152 -18 -462 0 -205 -4 -375 -7 -379 -4 -3
-47 -14 -95 -24 -48 -10 -113 -28 -144 -39 -118 -45 -274 -163 -384 -290 -83
-97 -163 -162 -242 -198 -51 -24 -75 -28 -192 -33 -130 -5 -134 -6 -157 -33
-32 -38 -30 -74 7 -160 30 -67 31 -76 25 -152 -18 -218 -18 -218 3 -253 36
-56 74 -72 173 -72 49 0 90 5 93 10 4 6 -7 23 -24 39 -16 15 -33 39 -36 53
-14 54 52 212 108 261 113 99 313 223 510 317 107 51 474 204 611 255 27 10
65 34 85 54 35 35 39 48 141 430 61 229 113 404 123 418 28 35 57 28 136 -33
40 -31 145 -100 234 -154 187 -112 192 -119 129 -184 -75 -78 -136 -194 -163
-314 -6 -26 -12 -121 -14 -212 -5 -252 -46 -482 -114 -638 -35 -82 -44 -121
-35 -157 11 -45 52 -55 190 -48 115 5 122 4 214 -27 75 -25 106 -31 146 -27
83 8 154 52 154 93 0 19 -8 25 -40 34 -22 5 -59 15 -82 21 -128 33 -258 124
-258 180 0 80 122 389 330 834 160 343 183 401 177 446 -7 55 -50 142 -107
220 -66 89 -247 262 -391 373 -75 58 -117 97 -121 115 -5 14 -9 73 -10 131 -1
104 -1 107 60 291 33 103 64 202 67 221 l6 33 232 0 232 0 90 36 c141 57 246
124 361 230 40 38 80 64 120 78 32 12 74 37 92 54 37 35 102 144 111 187 4 20
34 48 107 103 383 288 672 694 823 1157 138 422 147 911 26 1354 -204 744
-788 1359 -1520 1600 -265 87 -463 117 -758 114 -111 0 -218 -3 -237 -5z m709
-249 c255 -57 512 -167 731 -314 138 -93 216 -167 314 -297 l66 -88 -107 -7
c-432 -26 -1070 -236 -1743 -573 -291 -146 -583 -313 -799 -457 -58 -40 -107
-66 -112 -61 -16 16 -100 248 -144 398 -41 143 -75 296 -90 413 l-7 53 73 97
c81 107 310 343 403 414 l58 46 72 -40 c173 -98 372 -262 588 -487 l146 -153
61 27 c34 15 61 31 61 36 0 12 -193 220 -296 320 -153 147 -336 290 -468 365
l-38 22 73 43 c389 227 823 318 1158 243z m-1164 -87 c-44 -24 -111 -63 -148
-87 -67 -42 -69 -43 -100 -28 l-32 15 70 33 c80 37 265 109 280 110 6 0 -26
-20 -70 -43z m-363 -226 c14 -5 8 -14 -35 -48 -56 -45 -240 -230 -296 -298
l-33 -40 6 50 c10 81 44 169 83 214 20 23 67 65 106 92 64 45 73 48 111 42 23
-3 49 -9 58 -12z m-580 -448 c-1 -21 1 -81 5 -133 8 -93 8 -96 -20 -144 -132
-229 -247 -529 -302 -788 -38 -178 -55 -351 -55 -546 l0 -172 -29 -40 -29 -41
-15 68 c-76 335 -69 672 19 1010 67 260 214 556 376 761 27 34 51 62 52 62 1
0 0 -17 -2 -37z m3342 -175 c21 -32 80 -188 104 -276 l21 -73 -73 -87 c-128
-153 -321 -329 -544 -496 -147 -111 -393 -276 -403 -271 -4 3 -35 58 -69 123
-97 183 -279 475 -401 645 -7 9 -129 -42 -129 -54 0 -5 26 -46 59 -91 116
-165 305 -478 389 -644 l31 -61 -112 -65 c-280 -164 -571 -310 -884 -444 -98
-42 -180 -77 -181 -79 -2 -2 11 -25 30 -51 18 -27 36 -52 39 -57 17 -25 682
289 1002 473 86 49 161 90 166 90 18 0 178 -387 239 -580 67 -209 113 -436
127 -616 l7 -90 -87 -75 c-106 -91 -223 -175 -334 -241 l-84 -50 -42 16 c-66
26 -220 120 -327 201 -54 41 -99 75 -101 75 -1 0 -1 -20 1 -43 3 -29 -5 -69
-22 -118 l-26 -74 23 -18 c21 -17 172 -118 213 -143 16 -10 6 -16 -69 -38 -48
-15 -129 -35 -180 -45 -87 -17 -95 -17 -143 -1 -27 10 -69 21 -92 25 -23 4
-42 10 -42 14 0 27 25 71 43 77 114 36 210 205 192 338 -13 104 -77 199 -160
237 -48 22 -151 25 -198 6 -129 -55 -188 -220 -140 -392 18 -63 18 -74 6 -112
-17 -49 -15 -48 -92 -29 -31 8 -92 20 -136 26 -52 8 -102 24 -145 45 -90 45
-195 81 -322 109 -94 21 -115 30 -165 69 -32 24 -73 60 -92 78 -80 81 -231
308 -280 423 l-20 46 64 0 c84 0 270 25 413 55 129 27 330 82 352 95 11 7 7
19 -24 65 -31 48 -41 56 -59 51 -273 -79 -537 -126 -703 -126 l-101 0 -27 88
c-29 96 -66 263 -66 303 0 56 252 311 507 512 l71 57 85 -163 c196 -377 403
-698 646 -1002 53 -66 101 -126 107 -134 10 -13 20 -11 73 13 34 15 86 30 116
33 l53 6 -95 111 c-190 221 -408 532 -573 816 -68 116 -230 429 -230 443 0 10
186 132 355 234 676 408 1456 734 1990 832 149 28 152 28 302 30 127 1 133 0
147 -21z m-3262 -410 c36 -144 87 -299 150 -461 l50 -129 -23 -16 c-81 -57
-291 -234 -388 -327 l-114 -110 7 110 c22 358 96 656 243 976 20 44 38 77 41
74 3 -2 18 -55 34 -117z m3588 -35 c17 -49 45 -142 61 -208 155 -643 6 -1314
-409 -1839 -77 -98 -260 -278 -361 -355 l-83 -64 7 69 8 69 85 95 c180 202
300 382 418 625 136 280 211 526 256 840 20 137 16 543 -6 675 -10 58 -20 122
-23 143 -10 66 14 41 47 -50z m-144 -388 c7 -243 -5 -372 -52 -585 -85 -381
-261 -750 -502 -1049 -87 -109 -81 -112 -102 49 -32 250 -163 662 -313 983
l-46 97 147 99 c312 208 564 412 742 598 l105 110 8 -41 c4 -23 10 -140 13
-261z m-3828 -1195 c0 -8 -6 -1 -13 15 -7 17 -10 34 -7 40 6 10 20 -27 20 -55z
m3010 -952 c-24 -51 -28 -55 -116 -96 -50 -24 -101 -42 -113 -40 -19 2 -13 9
37 40 32 20 93 64 134 96 41 32 77 58 79 56 1 -1 -8 -27 -21 -56z"/>
<path d="M17850 5589 c-573 -70 -944 -349 -1057 -795 -14 -54 -17 -111 -17
-264 0 -170 3 -205 22 -275 43 -153 126 -294 244 -414 148 -150 281 -227 673
-391 442 -185 564 -264 627 -407 29 -66 28 -177 -2 -257 -27 -71 -94 -142
-168 -180 -99 -50 -185 -68 -357 -73 -182 -6 -307 8 -515 58 -101 24 -444 133
-511 163 -18 8 -18 -13 -1 -524 l7 -195 125 -42 c135 -44 269 -75 420 -95 119
-15 484 -15 610 0 389 49 664 163 873 361 214 204 308 452 294 780 -16 382
-161 609 -530 825 -116 68 -205 110 -450 212 -405 168 -525 243 -584 362 -24
49 -28 69 -28 142 0 104 29 175 98 244 94 94 209 129 422 129 200 0 342 -27
623 -115 80 -25 136 -38 141 -32 16 18 231 598 223 605 -27 25 -409 132 -587
165 -106 19 -479 28 -595 13z"/>
<path d="M5052 3762 c-347 -990 -632 -1804 -632 -1810 0 -9 108 -12 413 -12
l413 0 130 427 130 428 649 2 650 3 130 -430 130 -430 417 0 417 0 -50 143
c-27 78 -314 891 -637 1807 l-588 1665 -470 3 -469 2 -633 -1798z m1172 968
c34 -115 265 -866 392 -1272 5 -17 -21 -18 -456 -18 -436 0 -462 1 -455 18 15
39 336 1102 391 1294 58 204 59 206 71 170 6 -20 32 -107 57 -192z"/>
<path d="M13660 3843 c-332 -945 -618 -1760 -636 -1810 l-34 -93 418 0 418 0
130 427 130 428 649 0 650 0 130 -427 130 -428 417 0 417 0 -40 112 c-22 62
-309 876 -637 1808 l-598 1695 -470 3 -470 2 -604 -1717z m1120 962 c36 -123
405 -1320 417 -1352 4 -10 -91 -13 -457 -13 -366 0 -461 3 -457 13 27 70 426
1404 442 1477 5 19 10 31 11 25 2 -5 22 -73 44 -150z"/>
<path d="M7410 5220 l0 -320 485 0 485 0 0 -1480 0 -1480 385 0 385 0 0 1480
0 1480 490 0 490 0 0 320 0 320 -1360 0 -1360 0 0 -320z"/>
<path d="M10590 3740 l0 -1800 1110 0 1110 0 0 320 0 320 -725 0 -725 0 0
1480 0 1480 -385 0 -385 0 0 -1800z"/>
<path d="M4420 720 l0 -670 375 0 375 0 0 95 0 95 -265 0 -265 0 0 205 0 205
250 0 250 0 0 95 0 95 -250 0 -250 0 0 175 0 175 265 0 265 0 0 100 0 100
-375 0 -375 0 0 -670z"/>
<path d="M5730 1384 c0 -4 91 -149 203 -322 111 -174 201 -319 200 -323 -2 -4
-96 -155 -211 -336 -115 -180 -212 -334 -216 -340 -6 -10 20 -13 116 -13 l123
0 159 261 c88 143 162 262 165 264 4 2 79 -115 166 -261 l160 -264 128 0 c70
0 127 4 127 9 0 4 -97 157 -215 340 -118 182 -215 335 -215 340 0 5 90 149
200 320 110 171 200 316 200 321 0 6 -49 10 -119 10 l-118 0 -149 -245 c-82
-135 -151 -245 -154 -245 -3 0 -72 111 -153 245 l-149 245 -124 0 c-68 0 -124
-3 -124 -6z"/>
<path d="M7420 721 l0 -671 110 0 110 0 0 249 0 249 158 4 c127 4 168 10 216
27 86 31 138 64 189 121 56 62 86 139 94 239 13 181 -52 318 -185 385 -99 50
-149 57 -429 63 l-263 6 0 -672z m536 442 c59 -31 91 -74 104 -138 24 -115
-20 -208 -119 -253 -48 -22 -73 -27 -178 -30 l-123 -4 0 227 0 227 138 -4
c117 -3 143 -7 178 -25z"/>
<path d="M8940 720 l0 -670 380 0 380 0 0 95 0 95 -265 0 -265 0 0 205 0 205
245 0 245 0 0 95 0 95 -245 0 -245 0 0 175 0 175 265 0 265 0 0 100 0 100
-380 0 -380 0 0 -670z"/>
<path d="M10380 721 l0 -671 110 0 110 0 0 265 0 265 103 0 102 0 155 -261
c85 -144 160 -263 166 -265 5 -3 65 -3 131 -2 l121 3 -162 255 c-89 140 -172
272 -184 292 l-23 37 48 25 c77 39 129 91 165 164 31 62 33 74 33 167 0 125
-19 185 -82 255 -97 108 -180 130 -530 137 l-263 6 0 -672z m503 452 c80 -22
121 -63 138 -137 23 -102 -22 -199 -110 -239 -37 -17 -72 -22 -178 -25 l-133
-4 0 211 0 211 112 0 c74 0 132 -6 171 -17z"/>
<path d="M11980 720 l0 -670 115 0 115 0 0 670 0 670 -115 0 -115 0 0 -670z"/>
<path d="M12950 720 l0 -670 106 0 107 0 -5 530 c-3 292 -4 529 -2 528 1 -2
264 -760 346 -1001 l20 -58 101 3 101 3 183 510 c100 281 186 521 191 535 5
14 6 -213 4 -513 l-5 -537 112 0 111 0 0 670 0 670 -157 0 -158 0 -185 -520
c-102 -286 -187 -520 -190 -520 -3 0 -86 234 -185 520 l-180 520 -157 0 -158
0 0 -670z"/>
<path d="M15060 720 l0 -670 380 0 380 0 0 95 0 95 -265 0 -265 0 0 205 0 205
250 0 250 0 0 95 0 95 -250 0 -250 0 0 175 0 175 265 0 265 0 0 100 0 100
-380 0 -380 0 0 -670z"/>
<path d="M16500 720 l0 -670 101 0 101 0 -4 519 c-2 371 0 514 8 502 6 -9 149
-242 318 -518 l308 -503 139 0 139 0 0 670 0 670 -106 0 -106 0 4 -518 3 -518
-25 40 c-14 23 -158 256 -319 519 l-294 477 -134 0 -133 0 0 -670z"/>
<path d="M18140 1290 l0 -100 195 0 195 0 0 -570 0 -570 115 0 115 0 0 570 0
570 190 0 190 0 0 100 0 100 -500 0 -500 0 0 -100z"/>
</g>
</svg>
