<?xml version="1.0" encoding="UTF-8"?>
<svg xmlns="http://www.w3.org/2000/svg" xmlns:xlink="http://www.w3.org/1999/xlink" width="96pt" height="136pt" viewBox="0 0 96 136" version="1.1">
<defs>
<clipPath id="clip1">
  <path d="M 49 0.300781 L 71 0.300781 L 71 136 L 49 136 Z M 49 0.300781 "/>
</clipPath>
<clipPath id="clip2">
  <path d="M 75 80 L 95.199219 80 L 95.199219 87 L 75 87 Z M 75 80 "/>
</clipPath>
</defs>
<g id="surface1">
<g clip-path="url(#clip1)" clip-rule="nonzero">
<path style=" stroke:none;fill-rule:nonzero;fill:rgb(100%,100%,100%);fill-opacity:1;" d="M 53.96875 123.421875 L 50.089844 123.421875 L 50.089844 135.519531 L 70.0625 135.519531 L 70.0625 130.566406 L 62.109375 130.566406 L 62.109375 123.808594 L 58.308594 123.808594 L 58.308594 130.566406 L 53.96875 130.566406 Z M 70.0625 104.402344 L 63.609375 108.820312 C 62.765625 109.394531 61.957031 109.933594 61.417969 110.316406 C 60.726562 107.4375 58.808594 105.476562 55.734375 105.476562 C 51.855469 105.476562 49.972656 108.398438 49.972656 113.3125 C 49.972656 115.847656 50.011719 118.882812 50.089844 120.496094 L 70.0625 120.496094 L 70.0625 115.542969 L 62.265625 115.542969 L 62.265625 115.347656 L 70.0625 110.433594 Z M 56.234375 110.742188 C 57.886719 110.742188 59 111.96875 59 113.890625 C 59 114.429688 59 115.042969 58.921875 115.542969 L 53.816406 115.542969 C 53.777344 115.082031 53.738281 114.582031 53.738281 114.042969 C 53.738281 112.007812 54.660156 110.742188 56.234375 110.742188 M 70.0625 89.757812 L 66.105469 89.757812 L 66.105469 97.09375 L 61.726562 97.09375 L 61.726562 90.101562 L 57.964844 90.101562 L 57.964844 97.09375 L 53.96875 97.09375 L 53.96875 89.757812 L 50.089844 89.757812 L 50.089844 102.046875 L 70.0625 102.046875 Z M 70.136719 81 L 50.015625 81 L 50.015625 86.171875 L 70.136719 86.171875 Z M 63.839844 60.992188 C 61.691406 60.992188 60 62.105469 59.386719 64.332031 L 59.34375 64.332031 C 58.578125 62.335938 56.886719 61.261719 54.96875 61.261719 C 51.820312 61.261719 49.972656 63.449219 49.972656 68.828125 C 49.972656 71.476562 50.089844 74.742188 50.089844 76.777344 L 70.0625 76.777344 C 70.0625 73.703125 70.140625 71.09375 70.140625 69.632812 C 70.140625 63.066406 66.835938 60.992188 63.839844 60.992188 M 55.699219 66.523438 C 57.425781 66.523438 58.273438 68.097656 58.273438 70.441406 C 58.273438 70.710938 58.273438 71.285156 58.230469 71.859375 L 53.46875 71.859375 C 53.46875 71.207031 53.429688 70.402344 53.429688 69.785156 C 53.429688 67.289062 54.351562 66.523438 55.699219 66.523438 M 63.839844 66.214844 C 65.492188 66.214844 66.605469 67.328125 66.605469 69.746094 C 66.605469 70.515625 66.566406 71.285156 66.488281 71.859375 L 61.382812 71.859375 C 61.34375 71.359375 61.34375 70.59375 61.34375 70.171875 C 61.34375 67.671875 62.074219 66.214844 63.839844 66.214844 M 62.34375 39.34375 L 50.089844 39.34375 L 50.089844 44.222656 L 61.726562 44.222656 C 64.605469 44.222656 66.296875 45.414062 66.296875 48.445312 C 66.296875 51.25 64.992188 52.710938 61.917969 52.710938 L 50.089844 52.710938 L 50.089844 57.664062 L 63.03125 57.664062 C 67.566406 57.664062 70.40625 54.785156 70.40625 48.714844 C 70.40625 42.148438 66.796875 39.34375 62.34375 39.34375 M 70.0625 19.101562 L 63.609375 23.519531 C 62.765625 24.097656 61.957031 24.632812 61.417969 25.019531 C 60.726562 22.136719 58.808594 20.179688 55.734375 20.179688 C 51.855469 20.179688 49.972656 23.097656 49.972656 28.015625 C 49.972656 30.550781 50.011719 33.582031 50.089844 35.195312 L 70.0625 35.195312 L 70.0625 30.242188 L 62.265625 30.242188 L 62.265625 30.050781 L 70.0625 25.132812 Z M 56.234375 25.441406 C 57.886719 25.441406 59 26.671875 59 28.589844 C 59 29.128906 59 29.742188 58.921875 30.242188 L 53.816406 30.242188 C 53.777344 29.78125 53.738281 29.28125 53.738281 28.742188 C 53.738281 26.707031 54.660156 25.441406 56.234375 25.441406 M 68.949219 0.390625 L 59.421875 0.390625 L 59.421875 5.347656 L 65.683594 5.347656 C 65.914062 6.035156 66.03125 6.882812 66.03125 7.726562 C 66.03125 10.992188 63.917969 13.21875 60.078125 13.21875 C 56.117188 13.21875 53.890625 10.644531 53.890625 7.152344 C 53.890625 5.230469 54.277344 3.464844 55.007812 1.695312 L 50.742188 0.773438 C 50.050781 2.925781 49.742188 5.113281 49.742188 7.265625 C 49.742188 14.332031 54.507812 18.480469 60.460938 18.480469 C 67.066406 18.480469 70.40625 14.0625 70.40625 8.148438 C 70.40625 5.308594 69.867188 2.773438 68.949219 0.390625 "/>
</g>
<path style=" stroke:none;fill-rule:nonzero;fill:rgb(100%,100%,100%);fill-opacity:1;" d="M 37.316406 117.558594 L 24.984375 117.558594 L 24.984375 122.46875 L 36.699219 122.46875 C 39.597656 122.46875 41.296875 123.667969 41.296875 126.722656 C 41.296875 129.542969 39.984375 131.011719 36.890625 131.011719 L 24.984375 131.011719 L 24.984375 136 L 38.011719 136 C 42.574219 136 45.433594 133.101562 45.433594 126.992188 C 45.433594 120.382812 41.800781 117.558594 37.316406 117.558594 M 45.085938 92.566406 L 24.984375 92.566406 L 24.984375 97.398438 L 33.449219 97.359375 C 35.539062 97.359375 37.199219 97.320312 38.398438 97.242188 L 38.398438 97.28125 C 37.042969 97.898438 35.769531 98.59375 34.570312 99.367188 L 24.984375 105.207031 L 24.984375 111.890625 L 45.085938 111.890625 L 45.085938 107.097656 L 35.152344 107.097656 C 33.566406 107.097656 32.5625 107.136719 31.59375 107.214844 L 31.59375 107.175781 C 32.714844 106.671875 34.144531 105.976562 35.265625 105.28125 L 45.085938 99.253906 Z M 45.09375 81 L 25.007812 81 L 25 86.171875 L 45.09375 86.171875 L 45.09375 81 "/>
<g clip-path="url(#clip2)" clip-rule="nonzero">
<path style=" stroke:none;fill-rule:nonzero;fill:rgb(76.991272%,7.034302%,17.796326%);fill-opacity:1;" d="M 75.023438 86.167969 L 95.148438 86.167969 L 95.148438 80.996094 L 75.023438 80.996094 Z M 75.023438 86.167969 "/>
</g>
<path style=" stroke:none;fill-rule:nonzero;fill:rgb(76.991272%,7.034302%,17.796326%);fill-opacity:1;" d="M 0 86.167969 L 20.105469 86.167969 L 20.105469 81.003906 L 0 81.003906 Z M 0 86.167969 "/>
</g>
</svg>
